<svg class="main-svg" xmlns="http://www.w3.org/2000/svg" xmlns:xlink="http://www.w3.org/1999/xlink" width="2100" height="1500" style="" viewBox="0 0 700 500"><rect x="0" y="0" width="700" height="500" style="fill: rgb(255, 255, 255); fill-opacity: 1;"/><defs id="defs-661a54"><g class="clips"><clipPath id="clip661a54xyplot" class="plotclip"><rect width="540" height="320"/></clipPath><clipPath class="axesclip" id="clip661a54x"><rect x="80" y="0" width="540" height="500"/></clipPath><clipPath class="axesclip" id="clip661a54y"><rect x="0" y="100" width="700" height="320"/></clipPath><clipPath class="axesclip" id="clip661a54xy"><rect x="80" y="100" width="540" height="320"/></clipPath></g><g class="gradients"/><g class="patterns"/></defs><g class="bglayer"/><g class="layer-below"><g class="imagelayer"/><g class="shapelayer"/></g><g class="cartesianlayer"><g class="subplot xy"><g class="layer-subplot"><g class="shapelayer"/><g class="imagelayer"/></g><g class="minor-gridlayer"><g class="x"/><g class="y"/></g><g class="gridlayer"><g class="x"><path class="xgrid crisp" transform="translate(216.71,0)" d="M0,100v320" style="stroke: rgb(235, 240, 248); stroke-opacity: 1; stroke-width: 1px;"/><path class="xgrid crisp" transform="translate(353.42,0)" d="M0,100v320" style="stroke: rgb(235, 240, 248); stroke-opacity: 1; stroke-width: 1px;"/><path class="xgrid crisp" transform="translate(490.13,0)" d="M0,100v320" style="stroke: rgb(235, 240, 248); stroke-opacity: 1; stroke-width: 1px;"/></g><g class="y"><path class="ygrid crisp" transform="translate(0,418.47)" d="M80,0h540" style="stroke: rgb(235, 240, 248); stroke-opacity: 1; stroke-width: 1px;"/><path class="ygrid crisp" transform="translate(0,357.07)" d="M80,0h540" style="stroke: rgb(235, 240, 248); stroke-opacity: 1; stroke-width: 1px;"/><path class="ygrid crisp" transform="translate(0,295.68)" d="M80,0h540" style="stroke: rgb(235, 240, 248); stroke-opacity: 1; stroke-width: 1px;"/><path class="ygrid crisp" transform="translate(0,234.28)" d="M80,0h540" style="stroke: rgb(235, 240, 248); stroke-opacity: 1; stroke-width: 1px;"/><path class="ygrid crisp" transform="translate(0,172.89)" d="M80,0h540" style="stroke: rgb(235, 240, 248); stroke-opacity: 1; stroke-width: 1px;"/><path class="ygrid crisp" transform="translate(0,111.5)" d="M80,0h540" style="stroke: rgb(235, 240, 248); stroke-opacity: 1; stroke-width: 1px;"/></g></g><g class="zerolinelayer"><path class="xzl zl crisp" transform="translate(80,0)" d="M0,100v320" style="stroke: rgb(235, 240, 248); stroke-opacity: 1; stroke-width: 2px;"/></g><g class="layer-between"><g class="shapelayer"/><g class="imagelayer"/></g><path class="xlines-below"/><path class="ylines-below"/><g class="overlines-below"/><g class="xaxislayer-below"/><g class="yaxislayer-below"/><g class="overaxes-below"/><g class="overplot"><g class="xy" transform="translate(80,100)" clip-path="url(#clip661a54xyplot)"><g class="scatterlayer mlayer"><g class="trace scatter traced6916a" style="stroke-miterlimit: 2; opacity: 1;"><g class="fills"/><g class="errorbars"/><g class="lines"><path class="js-line" d="M0,289.71L2.73,286.65L4.1,283.7L5.47,277.96L6.84,268.29L8.2,261.48L9.57,229.7L10.94,207.75L12.3,211.58L15.04,247.75L16.41,267.72L19.14,280.8L20.51,283L21.87,272.51L23.24,250.42L27.34,132.35L28.71,114.14L30.08,111.31L31.44,138.19L34.18,73.1L35.54,73.43L36.91,80.4L38.28,112.97L41.01,199.37L42.38,171.94L45.11,134.52L46.48,138.2L49.22,198.88L50.58,217.43L51.95,226.27L53.32,229.68L54.68,221.22L56.05,206.24L57.42,180.43L58.78,129.28L61.52,86.46L62.89,82.52L64.25,109.42L65.62,68.5L66.99,48.35L68.35,50.31L69.72,55.48L71.09,88.76L73.82,185.56L75.19,160.45L77.92,109.32L79.29,113.03L82.03,178.82L83.39,196.01L86.13,211L87.49,205.04L90.23,167.13L91.59,112.79L94.33,68.49L95.7,65.86L97.06,91.49L98.43,50.27L99.8,34.79L101.16,40.32L102.53,49.62L103.9,85.99L106.63,177.91L108,152.98L110.73,105.62L112.1,119.38L114.84,176.6L116.2,194.16L118.94,210.02L120.3,204.21L121.67,191.34L123.04,168L125.77,91.53L127.14,71.91L128.51,69.92L129.87,97.77L132.61,37.39L133.97,41.51L135.34,53.32L136.71,93.55L139.44,194.4L140.81,166.76L143.54,132.1L144.91,127.22L147.65,188.91L149.01,207.34L151.75,219.95L153.11,214.34L154.48,199.53L155.85,174.75L158.58,101.05L159.95,82.36L161.32,81.3L162.68,109.97L164.05,72.12L165.42,55.63L166.78,64.52L168.15,95.17L172.25,208.95L173.62,183.91L174.99,168.42L176.35,161.6L177.72,150.26L179.09,231.75L183.19,272.54L184.56,280.41L187.29,289.64L188.66,304L191.39,284.43L192.76,270.4L194.13,260.39L195.49,262.25L196.86,256.57L198.23,245.53L199.59,240.83L200.96,240.84L205.06,232.41L206.43,197.74L207.8,162.74L209.16,156.02L210.53,164.51L211.9,187.16L214.63,221.97L216,229.88L217.37,233.17L218.73,223.91L221.47,181.31L222.84,127.14L225.57,80.12L226.94,75.55L228.3,98.37L229.67,57.9L231.04,42.21L232.41,45.62L233.77,52.97L235.14,86L237.87,178.79L239.24,152.79L241.97,103.19L243.34,112.68L246.08,168.84L247.44,186.88L250.18,202.76L251.54,198.29L252.91,184.21L254.28,161.69L257.01,86.56L258.38,68.86L259.75,66.38L261.11,89.69L262.48,49.91L263.85,71.17L265.22,64.5L266.58,54.09L270.68,178.73L272.05,148.37L274.78,100.71L276.15,110.15L278.89,166.86L280.25,183.32L282.99,198.18L284.35,192.86L287.09,154.84L288.46,103.86L291.19,56.94L292.56,52.94L293.92,78.18L295.29,39.17L296.66,23.93L298.03,28.37L299.39,39.12L300.76,74.55L303.49,164.48L304.86,138.1L307.59,82.69L308.96,89.08L313.06,165.4L314.43,174.67L315.8,181.36L317.16,177.56L318.53,165.45L319.9,144.32L322.63,66.27L324,49.34L325.37,47.66L326.73,73.89L328.1,33.04L329.47,17.88L330.84,24.25L332.2,34.76L333.57,66.61L334.94,119.52L336.3,163.94L337.67,138.28L340.41,90.3L341.77,91.04L344.51,145.88L345.87,162.74L348.61,180.8L349.97,179.26L352.71,142.99L354.08,91.34L356.81,48.09L358.18,47.49L359.54,74.29L360.91,37.24L362.28,21.21L363.65,26.35L365.01,40.54L366.38,73.19L369.11,169.82L370.48,144.12L373.22,101.65L374.58,105.4L378.68,164.71L380.05,175.83L382.78,189.13L384.15,189.53L385.52,198.65L386.89,178.96L388.25,163.48L389.62,156.59L390.99,153.51L392.35,168.58L393.72,164.37L395.09,163.69L397.82,188.09L399.19,203.33L400.56,211.95L401.92,208.07L403.29,181.08L404.66,173.05L407.39,195.17L408.76,213.76L412.86,254.27L414.23,261L415.59,266.77L416.96,268.81L418.33,284.73L419.7,280.01L422.43,260.94L423.8,248.99L425.16,252.18L426.53,245.67L427.9,237.03L429.27,233.21L430.63,233.91L432,233.72L433.37,232.49L434.73,229.88L437.47,162.18L438.84,159.77L440.2,170.68L441.57,191.84L444.3,222.81L445.67,229.55L447.04,232.3L448.41,223.89L451.14,182.1L452.51,133.59L455.24,73.15L456.61,67.56L457.97,91.82L459.34,54.47L460.71,36.67L462.08,37.69L463.44,47.38L464.81,85.77L467.54,178.73L468.91,152.73L471.65,122.27L473.01,123.64L475.75,181.32L477.11,199.79L479.85,213.47L481.22,207.97L483.95,166.92L485.32,119.14L488.05,75.82L489.42,71.35L490.78,98.74L492.15,57.89L493.52,35.75L494.89,37.02L496.25,42.99L497.62,76.49L500.35,170.08L501.72,137.7L504.46,90.1L505.82,97.35L508.56,159.46L509.92,176.62L512.66,192.64L514.03,187.54L516.76,149.43L518.13,103.18L520.86,63.72L522.23,61.77L523.59,93.95L524.96,56.04L526.33,36.74L527.7,41.78L529.06,54.3L530.43,91.73L533.16,180.95L534.53,153.86L537.27,125.96L538.63,137.65L540,166.75" style="vector-effect: none; fill: none; stroke: rgb(0, 0, 255); stroke-opacity: 1; stroke-width: 2px; opacity: 1;"/></g><g class="points"/><g class="text"/></g><g class="trace scatter trace604bdd" style="stroke-miterlimit: 2; opacity: 1;"><g class="fills"/><g class="errorbars"/><g class="lines"><path class="js-line" d="M0,283.9L1.37,289.15L2.73,283.25L5.47,274.78L6.84,266.87L9.57,249.54L10.94,208.99L12.3,190.37L13.67,209.61L17.77,273.55L19.14,277.6L21.87,275.45L23.24,256.96L25.97,184.14L27.34,130.29L30.08,102.7L31.44,98.05L32.81,128.49L34.18,70.63L35.54,63.92L36.91,75.75L38.28,86.12L39.65,134.74L41.01,188.69L42.38,194.72L43.75,137.92L45.11,132.19L46.48,131.56L47.85,153.62L49.22,207.05L50.58,205.81L53.32,224.37L54.68,223.02L58.78,159.49L60.15,102.22L61.52,98.53L62.89,80.63L64.25,73.04L65.62,102.88L66.99,46.54L68.35,49.06L71.09,69.35L72.46,121.89L73.82,181.14L75.19,182.11L76.56,121.21L77.92,102.66L80.66,133.84L82.03,187.27L83.39,187.77L84.76,196.15L86.13,203.9L87.49,207.17L91.59,148.54L92.96,83.45L94.33,88.41L95.7,67.05L97.06,61.54L98.43,87.66L99.8,30.54L101.16,42.33L103.9,69.35L105.27,127.29L106.63,174.97L108,173.72L109.37,109.74L110.73,110.28L112.1,109.51L113.47,152.47L114.84,175.76L116.2,183.36L118.94,202.7L120.3,205.87L124.41,148.47L125.77,89.4L127.14,90.17L128.51,70.85L129.87,66.14L131.24,94.78L132.61,35.84L133.97,43.51L136.71,73.42L138.08,133.36L139.44,187.29L140.81,181.18L142.18,121.89L143.54,129.67L144.91,130.7L146.28,129.37L147.65,200.4L149.01,196.98L151.75,213.77L153.11,215.31L155.85,178.8L157.22,154.6L158.58,97.08L159.95,98.06L161.32,78.32L162.68,74.48L164.05,105.83L165.42,50.31L166.78,57.65L168.15,78.34L172.25,183.52L173.62,200.93L174.99,139.93L176.35,150.6L177.72,157.12L179.09,138.45L180.46,292.09L181.82,231.12L184.56,263.71L185.92,270.48L188.66,276.21L190.03,297.9L194.13,250.98L195.49,243.9L196.86,254.61L198.23,249.69L199.59,236.19L200.96,234.01L202.33,237.59L203.7,233.52L206.43,228.09L207.8,181.81L209.16,144.95L210.53,151.23L211.9,164.69L213.27,188.47L216,223.69L217.37,229.36L218.73,227.89L220.1,208.47L222.84,163.42L224.2,100.91L225.57,93.06L226.94,73.42L228.3,65.56L229.67,89.06L231.04,37.5L232.41,43.89L235.14,68.01L236.51,120.45L237.87,176.33L239.24,176.7L240.61,110.85L241.97,104.35L243.34,112.44L244.71,140.7L246.08,171.79L247.44,178.02L248.81,191.34L250.18,195.54L251.54,199.85L252.91,183.99L255.65,143.4L257.01,84.89L258.38,87.56L259.75,69.87L261.11,64.09L262.48,87.94L263.85,31.55L265.22,88.76L266.58,62.99L267.95,71.44L270.68,174.18L272.05,173.63L273.42,101.94L274.78,106.15L276.15,111.54L277.52,137.61L278.89,172.81L280.25,175.49L281.62,187.61L282.99,190.4L284.35,196.1L285.72,178.4L288.46,138.56L289.82,78.39L291.19,80.79L292.56,58.88L293.92,52.51L295.29,78.33L296.66,21.61L298.03,36.15L300.76,65.24L302.13,120.54L303.49,163.98L304.86,167.42L306.23,89.77L307.59,97.02L308.96,97.02L310.33,120.21L311.7,151.63L313.06,161.71L314.43,172.78L315.8,175.31L317.16,180.27L318.53,165.52L321.27,128.52L322.63,65.84L324,77.46L325.37,57.57L326.73,51.95L328.1,78.85L329.47,16L330.84,36.54L333.57,64.52L334.94,114.72L336.3,165.84L337.67,166.59L339.04,88.3L340.41,104.05L341.77,101.37L343.14,112.64L344.51,156.39L345.87,157.31L348.61,177.54L349.97,179.29L351.34,169.86L352.71,142.77L354.08,130.58L355.44,67.02L356.81,76.38L358.18,56.63L359.54,52.47L360.91,79.28L362.28,20.76L363.65,38.19L366.38,72.47L367.75,118.25L369.11,165.65L370.48,172.89L371.85,91.93L373.22,115.15L374.58,104.26L375.95,126.88L377.32,149.71L378.68,159.41L380.05,173.36L381.42,178.94L382.78,185.59L384.15,184.64L385.52,180.91L386.89,199.32L388.25,156.56L389.62,153.42L390.99,156.89L392.35,155.09L393.72,178.06L395.09,162.2L396.46,163.48L397.82,179.9L400.56,209.58L401.92,212.19L403.29,198.8L404.66,157.53L406.03,168.17L407.39,196.1L408.76,201.86L410.13,221.91L412.86,246.91L414.23,252.71L416.96,258.61L418.33,258.56L419.7,283.25L421.06,270.7L425.16,234.05L426.53,245.45L429.27,229L430.63,227.29L432,230.99L433.37,231.16L434.73,229.29L436.1,225.76L437.47,170.51L438.84,146.93L441.57,172.16L442.94,193.59L445.67,224.82L447.04,228.39L448.41,226.64L449.77,209.22L452.51,166.86L453.87,111.14L456.61,66.68L457.97,58.56L459.34,82.58L460.71,34.25L462.08,37.05L463.44,49.59L464.81,64.91L466.18,122.88L467.54,174.37L468.91,175.55L470.28,108.98L471.65,131.76L473.01,118.48L474.38,135.5L475.75,193.19L477.11,183.58L478.48,201.67L479.85,206.56L481.22,208.63L482.58,192.04L483.95,162.03L485.32,152.43L486.68,95.69L488.05,94.22L489.42,72.56L490.78,66.2L492.15,95.58L493.52,37.6L494.89,40.92L496.25,54.61L497.62,61.91L498.99,114.38L500.35,165.58L501.72,176.61L503.09,87.74L504.46,104.27L505.82,104.11L507.19,123.48L508.56,168.86L509.92,168.32L511.29,180.78L512.66,185.37L514.03,189.93L515.39,172.21L518.13,134.4L519.49,80.73L520.86,86.18L522.23,66.76L523.59,62.36L524.96,97.69L526.33,35.84L527.7,47.81L530.43,79.09L531.8,133.45L533.16,178.66L534.53,172.39L535.9,109.4L537.27,139.71L538.63,116.6L540,160.34" style="vector-effect: none; fill: none; stroke: rgb(255, 0, 0); stroke-opacity: 1; stroke-dasharray: 9px, 9px; stroke-width: 2px; opacity: 1;"/></g><g class="points"/><g class="text"/></g></g></g></g><path class="xlines-above crisp" d="M0,0" style="fill: none;"/><path class="ylines-above crisp" d="M0,0" style="fill: none;"/><g class="overlines-above"/><g class="xaxislayer-above"><g class="xtick"><text text-anchor="middle" x="0" y="433" transform="translate(80,0)" style="font-family: 'Open Sans', verdana, arial, sans-serif; font-size: 12px; fill: rgb(42, 63, 95); fill-opacity: 1; white-space: pre; opacity: 1;">0</text></g><g class="xtick"><text text-anchor="middle" x="0" y="433" style="font-family: 'Open Sans', verdana, arial, sans-serif; font-size: 12px; fill: rgb(42, 63, 95); fill-opacity: 1; white-space: pre; opacity: 1;" transform="translate(216.71,0)">100</text></g><g class="xtick"><text text-anchor="middle" x="0" y="433" style="font-family: 'Open Sans', verdana, arial, sans-serif; font-size: 12px; fill: rgb(42, 63, 95); fill-opacity: 1; white-space: pre; opacity: 1;" transform="translate(353.42,0)">200</text></g><g class="xtick"><text text-anchor="middle" x="0" y="433" style="font-family: 'Open Sans', verdana, arial, sans-serif; font-size: 12px; fill: rgb(42, 63, 95); fill-opacity: 1; white-space: pre; opacity: 1;" transform="translate(490.13,0)">300</text></g></g><g class="yaxislayer-above"><g class="ytick"><text text-anchor="end" x="79" y="4.199999999999999" transform="translate(0,418.47)" style="font-family: 'Open Sans', verdana, arial, sans-serif; font-size: 12px; fill: rgb(42, 63, 95); fill-opacity: 1; white-space: pre; opacity: 1;">8k</text></g><g class="ytick"><text text-anchor="end" x="79" y="4.199999999999999" style="font-family: 'Open Sans', verdana, arial, sans-serif; font-size: 12px; fill: rgb(42, 63, 95); fill-opacity: 1; white-space: pre; opacity: 1;" transform="translate(0,357.07)">10k</text></g><g class="ytick"><text text-anchor="end" x="79" y="4.199999999999999" style="font-family: 'Open Sans', verdana, arial, sans-serif; font-size: 12px; fill: rgb(42, 63, 95); fill-opacity: 1; white-space: pre; opacity: 1;" transform="translate(0,295.68)">12k</text></g><g class="ytick"><text text-anchor="end" x="79" y="4.199999999999999" style="font-family: 'Open Sans', verdana, arial, sans-serif; font-size: 12px; fill: rgb(42, 63, 95); fill-opacity: 1; white-space: pre; opacity: 1;" transform="translate(0,234.28)">14k</text></g><g class="ytick"><text text-anchor="end" x="79" y="4.199999999999999" style="font-family: 'Open Sans', verdana, arial, sans-serif; font-size: 12px; fill: rgb(42, 63, 95); fill-opacity: 1; white-space: pre; opacity: 1;" transform="translate(0,172.89)">16k</text></g><g class="ytick"><text text-anchor="end" x="79" y="4.199999999999999" style="font-family: 'Open Sans', verdana, arial, sans-serif; font-size: 12px; fill: rgb(42, 63, 95); fill-opacity: 1; white-space: pre; opacity: 1;" transform="translate(0,111.5)">18k</text></g></g><g class="overaxes-above"/></g></g><g class="polarlayer"/><g class="smithlayer"/><g class="ternarylayer"/><g class="geolayer"/><g class="funnelarealayer"/><g class="pielayer"/><g class="iciclelayer"/><g class="treemaplayer"/><g class="sunburstlayer"/><g class="glimages"/><defs id="topdefs-661a54"><g class="clips"/><clipPath id="legend661a54"><rect width="114" height="48" x="0" y="0"/></clipPath></defs><g class="layer-above"><g class="imagelayer"/><g class="shapelayer"/></g><g class="infolayer"><g class="legend" pointer-events="all" transform="translate(80,100)"><rect class="bg" shape-rendering="crispEdges" width="114" height="48" x="0" y="0" style="stroke: rgb(68, 68, 68); stroke-opacity: 1; fill: rgb(255, 255, 255); fill-opacity: 1; stroke-width: 0px;"/><g class="scrollbox" transform="" clip-path="url(#legend661a54)"><g class="groups"><g class="traces" transform="translate(0,14.5)" style="opacity: 1;"><text class="legendtext" text-anchor="start" x="40" y="4.680000000000001" style="font-family: 'Open Sans', verdana, arial, sans-serif; font-size: 12px; fill: rgb(42, 63, 95); fill-opacity: 1; white-space: pre;">Dados Reais</text><g class="layers" style="opacity: 1;"><g class="legendfill"/><g class="legendlines"><path class="js-line" d="M5,0h30" style="fill: none; stroke: rgb(0, 0, 255); stroke-opacity: 1; stroke-width: 2px;"/></g><g class="legendsymbols"><g class="legendpoints"/></g></g><rect class="legendtoggle" x="0" y="-9.5" width="108.703125" height="19" style="fill: rgb(0, 0, 0); fill-opacity: 0;"/></g><g class="traces" transform="translate(0,33.5)" style="opacity: 1;"><text class="legendtext" text-anchor="start" x="40" y="4.680000000000001" style="font-family: 'Open Sans', verdana, arial, sans-serif; font-size: 12px; fill: rgb(42, 63, 95); fill-opacity: 1; white-space: pre;">Previsão</text><g class="layers" style="opacity: 1;"><g class="legendfill"/><g class="legendlines"><path class="js-line" d="M5,0h30" style="fill: none; stroke: rgb(255, 0, 0); stroke-opacity: 1; stroke-dasharray: 9px, 9px; stroke-width: 2px;"/></g><g class="legendsymbols"><g class="legendpoints"/></g></g><rect class="legendtoggle" x="0" y="-9.5" width="108.703125" height="19" style="fill: rgb(0, 0, 0); fill-opacity: 0;"/></g></g></g><rect class="scrollbar" rx="20" ry="3" width="0" height="0" x="0" y="0" style="fill: rgb(128, 139, 164); fill-opacity: 1;"/></g><g class="g-gtitle"><text class="gtitle" x="35" y="50" text-anchor="start" dy="0em" style="opacity: 1; font-family: 'Open Sans', verdana, arial, sans-serif; font-size: 17px; fill: rgb(42, 63, 95); fill-opacity: 1; white-space: pre;">Previsão de Carga usando LSTM</text></g><g class="g-xtitle"><text class="xtitle" x="350" y="460.3" text-anchor="middle" style="opacity: 1; font-family: 'Open Sans', verdana, arial, sans-serif; font-size: 14px; fill: rgb(42, 63, 95); fill-opacity: 1; white-space: pre;">Tempo</text></g><g class="g-ytitle"><text class="ytitle" transform="rotate(-90,40.240625,260)" x="40.240625" y="260" text-anchor="middle" style="opacity: 1; font-family: 'Open Sans', verdana, arial, sans-serif; font-size: 14px; fill: rgb(42, 63, 95); fill-opacity: 1; white-space: pre;">Carga</text></g></g></svg>